<svg xmlns="http://www.w3.org/2000/svg" viewBox="0 0 100 100">
  <!-- Base Pattern - Motif Subahnale (Diamond Pattern) -->
  <g fill="none" stroke="currentColor" stroke-width="1">
    <!-- Central Diamond -->
    <path d="M50,10 L90,50 L50,90 L10,50 Z" />
    
    <!-- Bunga Rebung (Bamboo Shoot Flowers) -->
    <path d="M50,20 Q60,35 50,50 Q40,35 50,20" />
    <path d="M20,50 Q35,60 50,50 Q35,40 20,50" />
    <path d="M80,50 Q65,60 50,50 Q65,40 80,50" />
    <path d="M50,80 Q60,65 50,50 Q40,65 50,80" />
    
    <!-- Corner Geometric Patterns -->
    <path d="M10,10 L30,10 L30,30 L10,30 Z" />
    <path d="M70,10 L90,10 L90,30 L70,30 Z" />
    <path d="M10,70 L30,70 L30,90 L10,90 Z" />
    <path d="M70,70 L90,70 L90,90 L70,90 Z" />
    
    <!-- Decorative Lines -->
    <line x1="50" y1="0" x2="50" y2="100" stroke-dasharray="2,2" />
    <line x1="0" y1="50" x2="100" y2="50" stroke-dasharray="2,2" />
    
    <!-- Small Decorative Elements -->
    <circle cx="50" cy="50" r="3" />
    <circle cx="10" cy="10" r="2" />
    <circle cx="90" cy="10" r="2" />
    <circle cx="10" cy="90" r="2" />
    <circle cx="90" cy="90" r="2" />
  </g>
</svg>
