<?xml version="1.0" encoding="utf-8"?>
<!-- Generator: Adobe Illustrator 26.0.2, SVG Export Plug-In . SVG Version: 6.00 Build 0)  -->
<svg version="1.1" id="Layer_1" xmlns="http://www.w3.org/2000/svg" xmlns:xlink="http://www.w3.org/1999/xlink" x="0px" y="0px"
	 viewBox="0 0 1280 1280" style="enable-background:new 0 0 1280 1280;" xml:space="preserve">
<style type="text/css">
	.st0{fill:#168F8C;}
	.st1{fill:#00A39D;}
	.st2{fill:#F9AD3C;}
	.st3{fill:#0CA49D;}
	.st4{fill:#FFFFFF;}
</style>
<path class="st0" d="M432.97,508.25h-0.41v0.06C432.68,508.31,432.79,508.31,432.97,508.25z"/>
<path class="st1" d="M435.69,504.36v248.76h58.48V566.67C494.17,552.75,486.74,510.69,435.69,504.36z"/>
<path class="st1" d="M124.74,709.85c7.43,0,13.52-0.93,18.22-2.84c4.7-1.91,8.41-4.35,11.08-7.31c2.67-3.02,4.47-6.38,5.51-10.15
	c0.99-3.77,1.51-7.6,1.51-11.49c0-4.47-0.58-8.41-1.74-12.01c-1.16-3.54-3.19-6.56-5.98-8.99c-2.84-2.44-6.56-4.35-11.25-5.69
	c-4.64-1.33-10.56-1.97-17.64-1.97H85.11v60.45H124.74z M85.11,551.82v59.93h29.3c6.21,0,11.83-0.46,16.82-1.33
	c4.99-0.87,9.22-2.44,12.76-4.64c3.48-2.2,6.15-5.28,8.01-9.17c1.86-3.89,2.73-8.76,2.73-14.68c0-5.8-0.7-10.56-2.15-14.39
	c-1.45-3.83-3.65-6.9-6.67-9.22c-3.02-2.32-6.79-4-11.43-4.99c-4.58-0.99-10.09-1.51-16.42-1.51H85.06H85.11z M118.12,509.7
	c16.77,0,31.04,1.57,42.81,4.64c11.78,3.13,21.41,7.48,28.83,13.17c7.43,5.69,12.88,12.53,16.24,20.65
	c3.36,8.12,5.11,17.17,5.11,27.15c0,5.45-0.75,10.67-2.32,15.72c-1.57,5.05-4,9.75-7.31,14.16c-3.31,4.41-7.6,8.41-12.82,12.07
	c-5.22,3.65-11.49,6.85-18.8,9.51c16.01,3.89,27.85,10.15,35.5,18.8s11.49,19.9,11.49,33.65c0,10.33-1.97,19.96-5.98,28.83
	c-4,8.88-9.86,16.65-17.58,23.21c-7.72,6.61-17.23,11.78-28.54,15.49c-11.31,3.71-24.25,5.57-38.81,5.57H29.01V509.7h89.28H118.12z"
	/>
<path class="st1" d="M385.97,558.96c-1.68,2.67-3.42,4.64-5.22,5.98c-1.86,1.33-4.18,1.97-7.08,1.97c-2.55,0-5.28-0.81-8.24-2.44
	c-2.96-1.62-6.27-3.42-9.98-5.4c-3.71-1.97-7.95-3.83-12.76-5.4c-4.76-1.62-10.21-2.44-16.3-2.44c-10.56,0-18.39,2.26-23.55,6.73
	c-5.16,4.47-7.77,10.56-7.77,18.22c0,4.87,1.57,8.93,4.64,12.18c3.13,3.25,7.19,5.98,12.24,8.35c5.05,2.32,10.85,4.47,17.35,6.44
	c6.5,1.97,13.11,4.12,19.9,6.5c6.79,2.38,13.4,5.16,19.9,8.41c6.5,3.25,12.3,7.31,17.35,12.3c5.05,4.99,9.11,11.08,12.24,18.22
	c3.13,7.14,4.64,15.78,4.64,25.87c0,11.2-1.91,21.7-5.8,31.44c-3.89,9.75-9.51,18.27-16.94,25.58c-7.37,7.25-16.48,13-27.32,17.17
	s-23.15,6.27-36.9,6.27c-7.54,0-15.26-0.75-23.09-2.32c-7.83-1.57-15.43-3.77-22.74-6.56c-7.31-2.84-14.21-6.21-20.65-10.09
	c-6.44-3.89-12.07-8.24-16.82-13l16.65-26.28c1.33-1.91,3.07-3.48,5.22-4.76c2.15-1.28,4.53-1.91,7.08-1.91
	c3.31,0,6.67,1.04,10.09,3.19c3.36,2.09,7.19,4.47,11.49,7.02c4.29,2.55,9.17,4.87,14.74,7.02c5.57,2.09,12.12,3.19,19.67,3.19
	c10.21,0,18.16-2.26,23.84-6.73c5.69-4.53,8.47-11.6,8.47-21.41c0-5.69-1.57-10.27-4.64-13.81c-3.13-3.54-7.19-6.5-12.24-8.82
	c-5.05-2.32-10.79-4.41-17.23-6.15c-6.44-1.8-13.05-3.77-19.84-5.92c-6.79-2.15-13.4-4.82-19.84-8.01
	c-6.44-3.19-12.18-7.31-17.23-12.47c-5.05-5.16-9.17-11.6-12.24-19.32c-3.13-7.72-4.64-17.23-4.64-28.54
	c0-9.11,1.86-17.98,5.51-26.63c3.65-8.64,9.05-16.36,16.19-23.15c7.14-6.79,15.84-12.18,26.16-16.24
	c10.33-4.06,22.16-6.09,35.5-6.09c7.43,0,14.68,0.58,21.76,1.74c7.08,1.16,13.75,2.9,20.07,5.16c6.32,2.26,12.24,4.99,17.75,8.18
	c5.51,3.19,10.38,6.73,14.74,10.73l-13.98,26.16L385.97,558.96z"/>
<path class="st2" d="M500.61,414.73c-0.12-2.03-0.35-4.06-0.64-6.03c13.11,13.52,31.79,21.41,52.04,20.13
	c9.69-0.64,18.74-3.31,26.8-7.54c-6.27,10.91-9.51,23.73-8.64,37.25c1.04,16.71,8.24,31.56,19.14,42.58
	c-5.57-1.1-11.43-1.57-17.4-1.16c-23.67,1.51-43.68,15.2-54.24,34.58c-4.18-28.66-26.4-50.94-54.24-55.87
	c23.5-11.49,38.99-36.32,37.24-63.99L500.61,414.73z"/>
<path class="st1" d="M601.47,653.87c2.72,0,5.09-0.29,7.05-0.93c1.95-0.64,3.61-1.45,4.85-2.55c1.3-1.1,2.25-2.44,2.84-4
	c0.59-1.57,0.89-3.25,0.89-5.11c0-3.6-1.3-6.44-3.91-8.47c-2.61-2.09-6.51-3.13-11.72-3.13h-15.33v24.19H601.47z M586.14,599.28
	v23.67h12.67c2.72,0,5.03-0.29,7.05-0.87c2.01-0.58,3.67-1.39,4.97-2.44c1.3-1.04,2.31-2.26,2.9-3.71c0.65-1.51,0.95-3.07,0.95-4.87
	c0-4.12-1.24-7.08-3.79-8.99c-2.49-1.91-6.39-2.84-11.66-2.84h-13.08V599.28z M599.22,591.85c4.38,0,8.11,0.41,11.25,1.28
	c3.14,0.81,5.74,2.03,7.76,3.6c2.07,1.57,3.55,3.48,4.5,5.74c0.95,2.2,1.42,4.76,1.42,7.54c0,1.74-0.3,3.36-0.83,4.93
	c-0.53,1.57-1.36,3.02-2.43,4.35c-1.07,1.33-2.49,2.61-4.14,3.65c-1.66,1.04-3.61,1.91-5.86,2.61c5.21,0.99,9.12,2.78,11.72,5.45
	c2.66,2.67,3.97,6.15,3.97,10.44c0,2.96-0.53,5.63-1.66,8.06c-1.07,2.44-2.72,4.52-4.85,6.27c-2.13,1.74-4.74,3.07-7.82,4.06
	c-3.08,0.93-6.63,1.39-10.6,1.39h-25.04v-69.44h22.62V591.85z"/>
<path class="st1" d="M677.2,635.53l-11.13-28.25c-0.36-0.81-0.65-1.8-1.07-2.9c-0.36-1.1-0.71-2.32-1.07-3.6
	c-0.71,2.61-1.42,4.82-2.13,6.56l-11.13,28.19h26.47H677.2z M697.15,661.29h-7.4c-0.89,0-1.54-0.23-2.07-0.64
	c-0.53-0.41-0.95-0.93-1.18-1.62l-6.63-16.77h-31.79l-6.63,16.77c-0.18,0.58-0.59,1.1-1.12,1.57c-0.53,0.46-1.24,0.7-2.07,0.7h-7.4
	l28.36-69.44h9.71l28.36,69.44H697.15z"/>
<path class="st1" d="M763.88,591.91v69.44h-4.8c-0.77,0-1.42-0.12-1.95-0.41c-0.47-0.23-1.01-0.7-1.48-1.33l-40.97-52.33
	c0.06,0.81,0.12,1.62,0.18,2.38c0.06,0.75,0.06,1.51,0.06,2.2v49.49h-8.41v-69.44h4.97c0.41,0,0.77,0.06,1.07,0.12
	c0.3,0.06,0.53,0.12,0.77,0.23c0.24,0.12,0.47,0.23,0.71,0.46c0.24,0.17,0.47,0.46,0.77,0.75l40.97,52.27
	c-0.06-0.87-0.12-1.62-0.18-2.44c-0.06-0.81-0.06-1.57-0.06-2.26v-49.2h8.41L763.88,591.91z"/>
<path class="st1" d="M791.59,622.31h3.61c1.24,0,2.25-0.17,3.02-0.46c0.77-0.35,1.48-0.87,2.07-1.62l23.56-26.16
	c0.65-0.87,1.36-1.45,2.07-1.74c0.71-0.35,1.6-0.46,2.66-0.46h8.11l-27,29.88c-0.65,0.75-1.3,1.45-1.95,1.91
	c-0.59,0.46-1.24,0.87-1.95,1.22c0.89,0.29,1.72,0.7,2.43,1.33c0.71,0.52,1.42,1.28,2.13,2.2l28.18,32.89h-8.29
	c-0.65,0-1.18-0.06-1.66-0.12c-0.41-0.12-0.83-0.23-1.12-0.41c-0.36-0.17-0.65-0.41-0.89-0.64c-0.24-0.23-0.47-0.52-0.71-0.87
	l-24.45-27.56c-0.65-0.81-1.36-1.39-2.13-1.68c-0.77-0.35-1.89-0.52-3.43-0.52h-4.32v31.79h-9.53v-69.44h9.53v30.46H791.59z"/>
<path class="st1" d="M909.05,602.76c-0.3,0.46-0.65,0.87-1.01,1.1c-0.36,0.23-0.77,0.35-1.24,0.35c-0.53,0-1.24-0.29-1.95-0.81
	c-0.77-0.52-1.72-1.16-2.84-1.8c-1.12-0.7-2.49-1.28-4.09-1.86c-1.6-0.58-3.49-0.81-5.8-0.81c-2.13,0-4.03,0.29-5.68,0.87
	c-1.6,0.52-2.96,1.33-4.09,2.26c-1.07,0.99-1.89,2.09-2.49,3.42c-0.53,1.28-0.83,2.67-0.83,4.24c0,1.91,0.47,3.54,1.42,4.87
	c1.01,1.28,2.25,2.32,3.85,3.25c1.6,0.93,3.43,1.68,5.45,2.38c2.07,0.64,4.14,1.33,6.22,2.03c2.13,0.7,4.2,1.51,6.22,2.44
	c2.07,0.87,3.85,1.97,5.45,3.36c1.6,1.33,2.9,3.02,3.85,4.99c1.01,1.97,1.48,4.41,1.48,7.25c0,3.02-0.53,5.92-1.6,8.59
	s-2.61,4.93-4.68,6.9c-2.01,1.97-4.5,3.54-7.46,4.64c-2.96,1.1-6.28,1.68-10.07,1.68c-4.62,0-8.82-0.81-12.55-2.44
	c-3.73-1.62-6.99-3.89-9.65-6.61l2.78-4.47c0.24-0.35,0.59-0.64,0.95-0.87c0.41-0.23,0.83-0.41,1.3-0.41c0.41,0,0.89,0.17,1.42,0.52
	c0.53,0.35,1.18,0.75,1.89,1.28c0.71,0.52,1.48,1.1,2.37,1.68c0.89,0.64,1.89,1.16,3.02,1.68c1.12,0.52,2.43,0.93,3.91,1.33
	c1.48,0.35,3.08,0.46,4.91,0.46c2.25,0,4.32-0.29,6.1-0.93c1.78-0.64,3.26-1.45,4.5-2.55c1.24-1.1,2.19-2.49,2.84-4
	c0.65-1.57,1.01-3.31,1.01-5.16c0-2.09-0.47-3.83-1.48-5.16c-0.95-1.33-2.25-2.49-3.79-3.36c-1.6-0.93-3.37-1.68-5.45-2.26
	c-2.07-0.64-4.14-1.28-6.22-1.91c-2.13-0.7-4.2-1.45-6.22-2.32c-2.07-0.87-3.85-2.03-5.45-3.36c-1.6-1.39-2.84-3.13-3.85-5.16
	c-0.95-2.09-1.42-4.7-1.42-7.77c0-2.44,0.47-4.82,1.42-7.14c1.01-2.32,2.43-4.35,4.26-6.09c1.89-1.8,4.14-3.19,6.87-4.29
	c2.72-1.04,5.86-1.62,9.41-1.62c3.97,0,7.58,0.64,10.78,1.86c3.26,1.22,6.16,3.02,8.58,5.34l-2.31,4.47L909.05,602.76z"/>
<path class="st1" d="M951.68,633.68v27.67h-9.59v-27.67l-25.99-41.77h8.41c0.83,0,1.54,0.23,2.01,0.64c0.47,0.41,0.95,0.93,1.3,1.57
	l16.22,26.98c0.59,1.16,1.12,2.2,1.66,3.19c0.47,0.99,0.95,1.97,1.3,2.96c0.36-0.99,0.77-1.97,1.24-2.96
	c0.47-0.99,0.95-2.09,1.54-3.19l16.16-26.98c0.3-0.52,0.71-1.04,1.24-1.51c0.53-0.46,1.18-0.7,2.01-0.7h8.47L951.68,633.68z"/>
<path class="st1" d="M1017.46,635.53l-11.13-28.25c-0.36-0.81-0.65-1.8-1.07-2.9c-0.36-1.1-0.71-2.32-1.07-3.6
	c-0.71,2.61-1.42,4.82-2.13,6.56l-11.13,28.19h26.47H1017.46z M1037.41,661.29h-7.4c-0.89,0-1.54-0.23-2.07-0.64
	c-0.53-0.41-0.95-0.93-1.18-1.62l-6.63-16.77h-31.79l-6.63,16.77c-0.18,0.58-0.59,1.1-1.12,1.57c-0.53,0.46-1.24,0.7-2.07,0.7h-7.4
	l28.36-69.44h9.71l28.36,69.44H1037.41z"/>
<path class="st1" d="M1066.42,625.5c2.78,0,5.21-0.35,7.34-0.99c2.13-0.7,3.91-1.62,5.33-2.78c1.48-1.22,2.55-2.67,3.26-4.35
	c0.71-1.68,1.07-3.54,1.07-5.57c0-4.12-1.36-7.25-4.14-9.34c-2.78-2.09-6.93-3.13-12.49-3.13h-10.48v26.22h10.07L1066.42,625.5z
	 M1099.16,661.29h-8.53c-1.78,0-3.02-0.64-3.85-1.97l-18.41-24.83c-0.53-0.75-1.18-1.33-1.84-1.62c-0.65-0.35-1.6-0.52-2.96-0.52
	h-7.28v28.95h-9.53v-69.44h20.01c4.5,0,8.35,0.46,11.6,1.33s5.98,2.15,8.05,3.83c2.13,1.68,3.73,3.71,4.74,6.09
	c1.01,2.38,1.54,4.99,1.54,7.95c0,2.44-0.41,4.76-1.18,6.9c-0.77,2.15-1.95,4.06-3.43,5.74c-1.48,1.68-3.32,3.13-5.51,4.29
	c-2.13,1.22-4.56,2.09-7.34,2.73c1.24,0.7,2.25,1.68,3.14,2.96l20.66,27.56L1099.16,661.29z"/>
<polygon class="st1" points="1118.41,661.35 1108.75,661.35 1108.75,591.91 1118.41,591.91 "/>
<path class="st1" d="M1174.12,635.53l-11.13-28.25c-0.36-0.81-0.65-1.8-1.07-2.9c-0.36-1.1-0.71-2.32-1.07-3.6
	c-0.71,2.61-1.42,4.82-2.13,6.56l-11.13,28.19h26.47H1174.12z M1194.07,661.29h-7.4c-0.83,0-1.54-0.23-2.07-0.64
	c-0.53-0.41-0.95-0.93-1.18-1.62l-6.63-16.77h-31.79l-6.63,16.77c-0.18,0.58-0.59,1.1-1.12,1.57c-0.53,0.46-1.24,0.7-2.07,0.7h-7.4
	l28.36-69.44h9.71l28.36,69.44H1194.07z"/>
<polygon class="st1" points="1260.86,591.91 1260.86,661.35 1251.26,661.35 1251.26,629.73 1213.02,629.73 1213.02,661.35 
	1203.43,661.35 1203.43,591.91 1213.02,591.91 1213.02,622.89 1251.26,622.89 1251.26,591.91 "/>
<polygon class="st3" points="585.95,752.9 576.55,752.9 576.55,683.45 585.95,683.45 "/>
<path class="st1" d="M661.69,683.45v69.44h-4.8c-0.77,0-1.42-0.12-1.95-0.41c-0.47-0.23-1.01-0.7-1.48-1.33l-40.97-52.33
	c0.06,0.81,0.12,1.62,0.18,2.38c0.06,0.75,0.06,1.51,0.06,2.2v49.49h-8.41v-69.44h4.97c0.41,0,0.77,0.06,1.07,0.12
	c0.3,0.06,0.53,0.12,0.77,0.23c0.24,0.12,0.47,0.23,0.71,0.46c0.24,0.17,0.47,0.46,0.77,0.75l40.97,52.27
	c-0.06-0.81-0.12-1.62-0.18-2.44c-0.06-0.81-0.06-1.57-0.06-2.26v-49.2h8.41L661.69,683.45z"/>
<path class="st1" d="M741.26,718.2c0,5.22-0.83,9.92-2.55,14.21c-1.66,4.29-4.09,7.89-7.1,10.96c-3.08,3.02-6.75,5.4-11.07,7.08
	c-4.26,1.62-9.06,2.49-14.27,2.49H679.8v-69.44h26.47c5.21,0,9.95,0.81,14.27,2.49c4.32,1.62,7.99,4,11.07,7.08
	c3.08,3.02,5.45,6.67,7.1,10.96c1.66,4.29,2.55,8.99,2.55,14.21V718.2z M731.43,718.2c0-4.29-0.59-8.06-1.78-11.43
	c-1.18-3.36-2.84-6.21-5.03-8.53c-2.19-2.32-4.8-4.12-7.93-5.34c-3.08-1.22-6.57-1.86-10.36-1.86h-16.87v54.24h16.87
	c3.85,0,7.28-0.64,10.36-1.86c3.08-1.22,5.74-3.02,7.93-5.28c2.19-2.32,3.85-5.16,5.03-8.53
	C730.84,726.27,731.43,722.44,731.43,718.2z"/>
<path class="st1" d="M820.54,718.2c0,5.22-0.83,9.98-2.55,14.33c-1.66,4.35-4.03,8.06-7.1,11.2c-3.08,3.13-6.75,5.57-11.07,7.31
	c-4.26,1.74-9.06,2.55-14.27,2.55s-9.95-0.87-14.27-2.55c-4.26-1.74-7.93-4.18-11.01-7.31c-3.08-3.13-5.45-6.85-7.1-11.2
	c-1.66-4.35-2.55-9.17-2.55-14.33c0-5.22,0.83-9.98,2.55-14.27c1.66-4.35,4.03-8.12,7.1-11.25c3.08-3.19,6.75-5.63,11.01-7.37
	c4.26-1.74,9.06-2.61,14.27-2.61s9.95,0.87,14.27,2.61c4.32,1.74,7.99,4.18,11.07,7.37c3.08,3.13,5.45,6.9,7.1,11.25
	C819.65,708.28,820.54,713.04,820.54,718.2z M810.71,718.2c0-4.29-0.59-8.06-1.78-11.49c-1.18-3.36-2.84-6.27-5.03-8.59
	c-2.19-2.38-4.8-4.18-7.93-5.45c-3.08-1.28-6.57-1.91-10.36-1.91s-7.22,0.64-10.36,1.91c-3.08,1.28-5.74,3.07-7.93,5.45
	c-2.19,2.32-3.85,5.16-5.03,8.59c-1.18,3.36-1.78,7.19-1.78,11.49c0,4.23,0.59,8.06,1.78,11.49c1.18,3.36,2.84,6.21,5.03,8.59
	c2.19,2.32,4.85,4.12,7.93,5.4c3.08,1.22,6.57,1.86,10.36,1.86c3.85,0,7.28-0.64,10.36-1.86c3.08-1.28,5.74-3.07,7.93-5.4
	c2.19-2.38,3.85-5.22,5.03-8.59C810.12,726.33,810.71,722.5,810.71,718.2z"/>
<path class="st1" d="M891.7,683.45v69.44h-4.8c-0.77,0-1.42-0.12-1.95-0.41c-0.47-0.23-1.01-0.7-1.48-1.33l-40.97-52.33
	c0.06,0.81,0.12,1.62,0.18,2.38c0.06,0.75,0.06,1.51,0.06,2.2v49.49h-8.41v-69.44h4.97c0.41,0,0.77,0.06,1.07,0.12
	c0.3,0.06,0.53,0.12,0.77,0.23c0.24,0.12,0.47,0.23,0.71,0.46c0.24,0.17,0.47,0.46,0.77,0.75l40.97,52.27
	c-0.06-0.81-0.12-1.62-0.18-2.44c-0.06-0.81-0.06-1.57-0.06-2.26v-49.2h8.41L891.7,683.45z"/>
<polygon class="st1" points="953.52,745.24 953.46,752.9 909.82,752.9 909.82,683.45 953.46,683.45 953.46,691.11 919.41,691.11 
	919.41,714.14 947,714.14 947,721.51 919.41,721.51 919.41,745.24 "/>
<path class="st1" d="M1003.13,694.3c-0.3,0.46-0.65,0.87-1.01,1.1c-0.36,0.23-0.77,0.35-1.24,0.35c-0.53,0-1.24-0.29-1.95-0.81
	c-0.77-0.52-1.72-1.16-2.84-1.8c-1.12-0.7-2.49-1.28-4.09-1.86c-1.6-0.52-3.49-0.81-5.8-0.81c-2.13,0-4.03,0.29-5.68,0.87
	c-1.6,0.52-2.96,1.33-4.09,2.26c-1.07,0.99-1.89,2.09-2.49,3.42c-0.53,1.28-0.83,2.73-0.83,4.24c0,1.91,0.47,3.54,1.42,4.87
	c1.01,1.28,2.25,2.32,3.85,3.25c1.6,0.93,3.43,1.68,5.45,2.38c2.07,0.64,4.14,1.33,6.22,2.03c2.13,0.7,4.2,1.51,6.22,2.44
	c2.07,0.87,3.85,1.97,5.45,3.36c1.6,1.33,2.9,3.02,3.85,4.99c1.01,1.97,1.48,4.41,1.48,7.25c0,3.02-0.53,5.92-1.6,8.59
	s-2.61,4.93-4.68,6.9c-2.01,1.97-4.5,3.54-7.46,4.64c-2.96,1.1-6.28,1.68-10.07,1.68c-4.62,0-8.82-0.81-12.55-2.44
	c-3.73-1.62-6.99-3.89-9.65-6.61l2.78-4.47c0.24-0.35,0.59-0.64,0.95-0.87c0.41-0.23,0.83-0.41,1.3-0.41c0.41,0,0.89,0.17,1.42,0.52
	c0.59,0.35,1.18,0.75,1.89,1.28c0.71,0.52,1.48,1.1,2.37,1.68c0.89,0.64,1.89,1.16,3.02,1.68c1.12,0.52,2.43,0.93,3.91,1.33
	c1.48,0.35,3.08,0.46,4.91,0.46c2.25,0,4.32-0.29,6.1-0.93c1.78-0.64,3.26-1.45,4.5-2.55c1.24-1.16,2.19-2.49,2.84-4
	c0.65-1.57,1.01-3.31,1.01-5.16c0-2.09-0.47-3.83-1.48-5.16c-0.95-1.33-2.25-2.49-3.79-3.36c-1.6-0.93-3.37-1.68-5.45-2.26
	c-2.07-0.64-4.14-1.28-6.22-1.91c-2.13-0.7-4.2-1.45-6.22-2.32c-2.07-0.87-3.85-2.03-5.45-3.36c-1.6-1.39-2.84-3.13-3.85-5.16
	c-0.95-2.09-1.42-4.7-1.42-7.77c0-2.44,0.47-4.82,1.42-7.14c1.01-2.32,2.43-4.35,4.26-6.09c1.89-1.8,4.14-3.19,6.87-4.29
	c2.72-1.04,5.86-1.62,9.41-1.62c3.97,0,7.58,0.64,10.78,1.86c3.26,1.22,6.16,3.02,8.58,5.34l-2.31,4.47L1003.13,694.3z"/>
<polygon class="st1" points="1030.19,752.9 1020.6,752.9 1020.6,683.45 1030.19,683.45 "/>
<path class="st1" d="M1085.96,727.08l-11.13-28.25c-0.36-0.87-0.65-1.8-1.07-2.9c-0.36-1.1-0.71-2.32-1.07-3.6
	c-0.71,2.61-1.42,4.81-2.13,6.56l-11.13,28.19h26.47H1085.96z M1105.91,752.84h-7.4c-0.89,0-1.54-0.23-2.07-0.64
	c-0.53-0.41-0.95-0.93-1.18-1.62l-6.63-16.77h-31.79l-6.63,16.77c-0.18,0.58-0.59,1.1-1.12,1.57c-0.53,0.46-1.24,0.7-2.07,0.7h-7.4
	l28.36-69.44h9.71l28.36,69.44H1105.91z"/>
</svg>
