<?xml version="1.0" encoding="UTF-8"?>
<!DOCTYPE svg PUBLIC "-//W3C//DTD SVG 1.1//EN" "http://www.w3.org/Graphics/SVG/1.1/DTD/svg11.dtd">
<!-- Creator: CorelDRAW -->
<svg xmlns="http://www.w3.org/2000/svg" xml:space="preserve" width="8.5in" height="11in" version="1.1" style="shape-rendering:geometricPrecision; text-rendering:geometricPrecision; image-rendering:optimizeQuality; fill-rule:evenodd; clip-rule:evenodd"
viewBox="0 0 8500 11000"
 xmlns:xlink="http://www.w3.org/1999/xlink">
 <defs>
  <style type="text/css">
   <![CDATA[
    .fil5 {fill:none}
    .fil7 {fill:#EFAE33}
    .fil8 {fill:#00B2E6}
    .fil9 {fill:#0083BD}
    .fil6 {fill:#FEFEFE;fill-rule:nonzero}
    .fil3 {fill:#294232;fill-opacity:0.768627}
    .fil4 {fill:url(#id7)}
    .fil0 {fill:url(#id8)}
    .fil2 {fill:url(#id9)}
    .fil1 {fill:url(#id10)}
   ]]>
  </style>
    <clipPath id="id0">
     <path d="M501 4107l7498 0c193,0 350,158 350,350l0 2086c0,192 -157,350 -350,350l-7498 0c-193,0 -350,-158 -350,-350l0 -2086c0,-192 157,-350 350,-350z"/>
    </clipPath>
      <mask id="id1">
  <linearGradient id="id2" gradientUnits="userSpaceOnUse" x1="-1072.57" y1="5146.26" x2="1653.92" y2="5164.19">
   <stop offset="0" style="stop-opacity:1; stop-color:white"/>
   <stop offset="1" style="stop-opacity:0; stop-color:white"/>
  </linearGradient>
       <rect style="fill:url(#id2)" x="148" y="4104" width="2656" height="2792"/>
      </mask>
      <mask id="id3">
  <linearGradient id="id4" gradientUnits="userSpaceOnUse" x1="-121.874" y1="5827.87" x2="4201.03" y2="5881.7">
   <stop offset="0" style="stop-opacity:1; stop-color:white"/>
   <stop offset="1" style="stop-opacity:0; stop-color:white"/>
  </linearGradient>
       <rect style="fill:url(#id4)" x="2345" y="4104" width="3281" height="2792"/>
      </mask>
      <mask id="id5">
  <linearGradient id="id6" gradientUnits="userSpaceOnUse" x1="2568.73" y1="5558.82" x2="6963.41" y2="5522.95">
   <stop offset="0" style="stop-opacity:1; stop-color:white"/>
   <stop offset="1" style="stop-opacity:0; stop-color:white"/>
  </linearGradient>
       <rect style="fill:url(#id6)" x="5168" y="4104" width="3185" height="2792"/>
      </mask>
  <linearGradient id="id7" gradientUnits="userSpaceOnUse" x1="8348.89" y1="5500" x2="5171.31" y2="5500">
   <stop offset="0" style="stop-opacity:1; stop-color:#00704D"/>
   <stop offset="1" style="stop-opacity:1; stop-color:#059255"/>
  </linearGradient>
  <linearGradient id="id8" gradientUnits="objectBoundingBox" xlink:href="#id7" x1="100%" y1="50.0001%" x2="0%" y2="50.0001%">
  </linearGradient>
  <linearGradient id="id9" gradientUnits="userSpaceOnUse" xlink:href="#id7" x1="8348.9" y1="5500" x2="5171.31" y2="5500">
  </linearGradient>
  <linearGradient id="id10" gradientUnits="objectBoundingBox" xlink:href="#id7" x1="100%" y1="50.0001%" x2="0.000240475%" y2="50.0001%">
  </linearGradient>
 </defs>
 <g id="Layer_x0020_1">
  <metadata id="CorelCorpID_0Corel-Layer"/>
  <g id="Bank_x0020_NTB_x0020_Syariah_x0020_Logo.cdr">
   <g>
   </g>
   <g style="clip-path:url(#id0)">
    <g id="_2101704839360">
     <polygon class="fil0" points="2349,6893 2801,4107 151,4107 151,6893 "/>
     <polygon class="fil1" points="2801,4107 2349,6893 5623,6893 5171,4107 "/>
     <polygon class="fil2" points="5171,4107 5623,6893 8349,6893 8349,4107 "/>
     <polygon class="fil3" points="-108,3827 8753,3827 8753,7110 -108,7110 "/>
     <polygon class="fil0" style="mask:url(#id1)" points="2349,6893 2801,4107 151,4107 151,6893 "/>
     <polygon class="fil1" style="mask:url(#id3)" points="2801,4107 2349,6893 5623,6893 5171,4107 "/>
     <polygon class="fil4" style="mask:url(#id5)" points="5171,4107 5623,6893 8349,6893 8349,4107 "/>
    </g>
   </g>
   <path class="fil5" d="M501 4107l7498 0c193,0 350,158 350,350l0 2086c0,192 -157,350 -350,350l-7498 0c-193,0 -350,-158 -350,-350l0 -2086c0,-192 157,-350 350,-350z"/>
   <path class="fil6" d="M501 4072l7498 0c106,0 202,44 272,113 70,70 113,166 113,272l0 2086c0,106 -43,202 -113,272 -70,69 -166,113 -272,113l-7498 0c-106,0 -202,-44 -272,-113 -70,-70 -113,-166 -113,-272l0 -2086c0,-106 43,-202 113,-272 70,-69 166,-113 272,-113zm7498 70l-7498 0c-87,0 -165,36 -222,93 -58,57 -93,136 -93,222l0 2086c0,86 35,165 93,222 57,57 135,93 222,93l7498 0c87,0 165,-36 222,-93 58,-57 93,-136 93,-222l0 -2086c0,-86 -35,-165 -93,-222 -57,-57 -135,-93 -222,-93z"/>
   <path class="fil7" d="M2235 4556c-16,15 -19,23 -30,43 -8,17 -17,35 -24,54 -25,62 -45,134 -62,211 -49,226 -72,446 -111,671 -6,36 -14,77 -26,115 -18,51 -43,97 -92,124 -16,9 -35,15 -56,19l-639 0c34,-36 62,-105 87,-195 19,-69 37,-151 52,-237 29,-155 46,-312 72,-468 20,-125 66,-301 180,-337l649 0z"/>
   <path class="fil6" d="M3049 5551c0,27 -4,51 -12,73 -8,22 -18,42 -33,60 -14,18 -31,33 -51,47 -19,13 -42,24 -66,33 -25,9 -52,16 -80,21 -29,4 -61,6 -98,6l-255 0c-12,0 -22,-3 -33,-9 -10,-7 -15,-19 -15,-36l0 -747c0,-16 5,-28 15,-35 11,-7 21,-10 33,-10l222 0c58,0 106,5 143,14 37,10 68,24 93,42 25,18 44,40 56,67 13,26 19,56 19,89 0,20 -3,39 -8,57 -6,18 -14,35 -25,50 -11,15 -24,29 -40,41 -17,12 -35,22 -57,30 27,4 52,12 75,23 23,12 43,26 61,44 17,18 31,38 41,62 10,24 15,50 15,78zm4533 -11c0,30 -4,57 -14,81 -10,24 -23,46 -40,64 -17,19 -37,35 -60,48 -23,14 -49,25 -77,33 -28,9 -58,15 -90,19 -32,4 -68,6 -107,6l-259 0c-17,0 -31,-4 -42,-12 -12,-9 -17,-22 -17,-41l0 -730c0,-19 5,-33 17,-41 11,-9 25,-13 42,-13l245 0c59,0 110,5 152,13 41,9 76,22 104,39 29,18 51,40 66,67 15,26 22,58 22,94 0,20 -3,39 -9,57 -6,18 -15,35 -26,49 -12,15 -26,28 -43,39 -17,11 -36,20 -58,27 28,5 54,12 77,23 23,11 44,24 61,42 17,17 31,37 41,59 10,23 15,49 15,77zm-256 -352c0,-17 -3,-32 -9,-45 -6,-14 -15,-25 -27,-34 -12,-9 -27,-15 -46,-20 -18,-5 -43,-7 -73,-7l-101 0 0 217 111 0c29,0 52,-3 69,-9 17,-5 31,-14 42,-24 12,-10 20,-22 26,-35 5,-14 8,-28 8,-43zm50 358c0,-19 -3,-37 -11,-52 -7,-15 -19,-28 -33,-38 -15,-11 -33,-19 -56,-24 -22,-6 -52,-9 -88,-9l-118 0 0 238 144 0c27,0 50,-2 69,-7 19,-5 35,-12 49,-22 14,-10 25,-22 33,-36 7,-15 11,-31 11,-50zm-568 -522c0,13 0,23 -2,32 -1,9 -3,16 -5,21 -3,6 -6,10 -10,12 -3,3 -8,4 -12,4l-244 0 0 675c0,4 -2,8 -5,12 -4,3 -9,6 -17,8 -7,2 -17,4 -30,5 -13,2 -29,2 -48,2 -19,0 -35,0 -48,-2 -13,-1 -23,-3 -30,-5 -8,-2 -13,-5 -16,-8 -4,-4 -5,-8 -5,-12l0 -675 -245 0c-5,0 -9,-1 -13,-4 -3,-2 -6,-6 -9,-12 -2,-5 -4,-12 -5,-21 -1,-9 -2,-19 -2,-32 0,-13 1,-24 2,-33 1,-9 3,-16 5,-22 3,-5 6,-9 9,-11 4,-3 8,-4 13,-4l688 0c4,0 9,1 12,4 4,2 7,6 10,11 2,6 4,13 5,22 2,9 2,20 2,33zm-814 708c0,10 -2,19 -6,27 -4,7 -9,14 -16,19 -7,5 -15,9 -24,11 -9,2 -19,4 -28,4l-85 0c-17,0 -33,-2 -45,-5 -13,-3 -25,-8 -36,-16 -11,-8 -21,-19 -31,-33 -10,-13 -21,-31 -34,-52l-243 -392c-14,-23 -28,-48 -43,-75 -14,-27 -27,-53 -39,-79l-1 0c2,31 3,62 4,93 1,31 1,63 1,95l0 439c0,4 -1,8 -4,11 -2,4 -7,6 -14,9 -7,2 -16,4 -27,5 -12,2 -27,2 -45,2 -17,0 -32,0 -44,-2 -11,-1 -20,-3 -27,-5 -6,-3 -11,-5 -13,-9 -3,-3 -4,-7 -4,-11l0 -753c0,-20 7,-35 21,-46 13,-10 30,-15 50,-15l107 0c19,0 35,2 48,4 13,3 25,8 35,14 10,7 20,16 29,27 9,12 18,26 28,42l190 307c11,18 22,36 33,54 11,18 21,36 31,54 10,18 20,36 30,53 9,17 18,34 27,51l1 0c-1,-30 -2,-61 -3,-94 -1,-33 -1,-64 -1,-94l0 -393c0,-4 1,-8 4,-11 3,-4 8,-7 15,-9 7,-3 17,-5 28,-6 12,-1 27,-1 45,-1 17,0 31,0 43,1 11,1 20,3 26,6 7,2 11,5 14,9 2,3 3,7 3,11l0 753zm-941 43c0,3 -1,6 -3,9 -2,2 -5,4 -10,6 -5,2 -11,3 -20,4 -9,1 -19,1 -33,1 -13,0 -24,0 -33,-1 -9,0 -16,-1 -22,-3 -6,-1 -11,-4 -15,-6 -4,-3 -7,-7 -10,-10l-287 -323 0 323c0,4 -1,7 -3,9 -2,2 -5,4 -10,6 -4,2 -10,3 -18,4 -9,1 -19,1 -31,1 -12,0 -22,0 -31,-1 -8,-1 -14,-2 -19,-4 -4,-2 -8,-4 -9,-6 -2,-2 -3,-5 -3,-9l0 -864c0,-4 1,-7 3,-9 1,-3 5,-5 9,-7 5,-1 11,-3 19,-4 9,0 19,-1 31,-1 12,0 22,1 31,1 8,1 14,3 18,4 5,2 8,4 10,7 2,2 3,5 3,9l0 526 257 -241c4,-5 8,-8 13,-11 4,-3 9,-5 16,-7 6,-2 13,-3 22,-4 8,-1 19,-1 31,-1 12,0 23,0 31,1 9,1 16,1 21,3 5,2 9,4 12,6 2,2 3,6 3,9 0,6 -2,11 -5,16 -3,5 -9,11 -16,18l-246 211 276 307c6,7 11,13 14,18 3,5 4,9 4,13zm-674 0c0,4 -1,7 -3,9 -2,2 -5,4 -10,6 -4,2 -11,3 -19,4 -8,1 -18,1 -30,1 -12,0 -23,0 -31,-1 -8,-1 -14,-2 -19,-4 -4,-2 -7,-4 -9,-6 -2,-2 -3,-5 -3,-9l0 -341c0,-33 -3,-60 -9,-80 -6,-20 -15,-38 -27,-52 -11,-15 -26,-26 -45,-34 -18,-8 -39,-12 -63,-12 -31,0 -63,10 -94,29 -31,19 -64,47 -98,83l0 407c0,4 -1,7 -3,9 -2,2 -5,4 -10,6 -4,2 -10,3 -18,4 -9,1 -19,1 -32,1 -11,0 -21,0 -30,-1 -8,-1 -14,-2 -19,-4 -5,-2 -8,-4 -10,-6 -1,-2 -2,-5 -2,-9l0 -582c0,-4 0,-6 2,-9 1,-2 5,-4 9,-6 5,-2 10,-3 17,-4 7,-1 17,-1 28,-1 11,0 21,0 28,1 7,1 13,2 17,4 4,2 7,4 9,6 1,3 2,5 2,9l0 77c38,-37 76,-64 114,-81 38,-17 77,-25 115,-25 45,0 84,6 114,20 31,13 57,30 76,52 19,22 32,48 41,78 8,29 12,65 12,106l0 355zm-698 1c0,5 -2,9 -7,11 -3,3 -9,5 -16,6 -7,2 -18,2 -31,2 -13,0 -24,0 -31,-2 -8,-1 -14,-3 -17,-6 -4,-2 -5,-6 -5,-11l0 -58c-30,27 -63,48 -100,63 -36,15 -75,23 -115,23 -36,0 -69,-4 -97,-12 -29,-8 -54,-20 -74,-35 -21,-15 -37,-34 -48,-55 -11,-23 -17,-47 -17,-76 0,-32 8,-61 24,-85 15,-24 38,-44 67,-60 29,-16 65,-28 107,-36 42,-8 90,-12 142,-12l94 0 0 -45c0,-23 -3,-43 -8,-60 -6,-17 -15,-31 -27,-43 -13,-11 -29,-20 -48,-26 -20,-6 -44,-8 -72,-8 -31,0 -59,3 -83,9 -24,6 -46,13 -64,21 -19,7 -34,14 -46,20 -13,7 -22,10 -28,10 -4,0 -7,-1 -10,-3 -3,-2 -6,-4 -8,-8 -2,-3 -4,-7 -5,-13 -1,-5 -2,-11 -2,-18 0,-10 1,-19 3,-25 2,-6 6,-12 13,-18 7,-6 18,-12 35,-20 16,-7 36,-14 57,-21 22,-6 45,-11 71,-15 26,-4 52,-6 78,-6 49,0 90,5 124,14 34,10 62,24 83,42 21,18 37,41 46,68 10,27 15,59 15,95l0 393zm-124 -266l-107 0c-34,0 -63,3 -89,7 -25,5 -45,13 -62,22 -17,10 -29,22 -37,35 -7,14 -11,30 -11,47 0,30 11,55 33,72 23,18 54,27 94,27 33,0 63,-7 91,-21 28,-14 57,-36 88,-65l0 -124zm-703 -333c0,-21 -4,-39 -10,-55 -7,-17 -17,-30 -31,-42 -14,-11 -32,-20 -55,-26 -23,-6 -53,-9 -90,-9l-134 0 0 271 148 0c33,0 61,-4 81,-12 21,-7 38,-17 51,-30 14,-13 24,-27 30,-44 7,-18 10,-35 10,-53zm59 381c0,-25 -5,-47 -15,-66 -9,-19 -22,-35 -40,-48 -18,-13 -40,-23 -67,-30 -27,-6 -61,-9 -102,-9l-155 0 0 295 188 0c30,0 56,-4 78,-9 22,-6 42,-15 59,-27 16,-12 30,-27 39,-45 10,-17 15,-38 15,-61z"/>
   <path class="fil5" d="M916 4967c10,11 13,16 19,29 6,11 12,23 17,36 17,42 30,90 41,141 33,151 48,297 74,448 4,24 9,51 18,76 11,34 28,65 61,83 10,6 23,10 37,13l137 0 289 0 137 0c-22,-24 -41,-71 -58,-130 -13,-47 -24,-101 -35,-159 -19,-103 -30,-208 -47,-312 -14,-83 -44,-201 -120,-225l-137 0 -296 0 -137 0z"/>
   <path class="fil8" d="M993 5173c33,151 48,297 74,448 4,24 9,51 18,76 11,34 28,65 61,83 10,6 23,10 37,13l12 0c34,-36 62,-106 87,-195 19,-69 37,-151 52,-237 24,-131 41,-262 60,-394l-45 0 -296 0 -137 0c10,11 13,16 19,29 6,11 12,23 17,36 17,42 30,90 41,141z"/>
   <path class="fil9" d="M1394 4967c-19,132 -36,263 -60,394 -15,86 -33,168 -52,237 -25,89 -53,159 -87,195l125 0 289 0 137 0c-22,-24 -41,-71 -58,-130 -13,-47 -24,-101 -35,-159 -19,-103 -30,-208 -47,-312 -14,-83 -44,-201 -120,-225l-92 0z"/>
   <path class="fil6" d="M5618 6145l-23 0c3,-30 5,-53 5,-69 0,-22 -6,-39 -18,-52 -12,-13 -28,-19 -48,-19 -32,0 -60,11 -83,34 -24,23 -36,49 -36,77 0,15 4,29 10,41 7,13 21,30 43,52 41,40 67,71 80,93 12,23 19,45 19,66 0,31 -10,61 -29,90 -19,29 -47,53 -84,72 -38,19 -77,29 -118,29 -41,0 -76,-11 -104,-32 -28,-22 -42,-44 -42,-68 0,-12 4,-23 11,-31 8,-9 16,-13 25,-13 10,0 18,4 25,12 4,5 8,15 12,31 4,20 10,34 17,43 6,8 15,16 27,21 12,6 24,8 38,8 41,0 77,-13 108,-41 31,-28 46,-59 46,-92 0,-12 -2,-23 -6,-34 -4,-12 -11,-25 -21,-39 -7,-10 -23,-27 -48,-52 -24,-24 -40,-40 -46,-49 -9,-13 -16,-26 -20,-39 -4,-14 -6,-27 -6,-39 0,-27 8,-53 26,-79 17,-27 40,-48 68,-64 28,-15 60,-23 96,-23 18,0 40,3 66,8 15,3 28,5 39,7 -7,18 -12,36 -15,52 -4,17 -8,50 -14,99zm36 75l-14 -21 32 -21c31,-22 53,-35 66,-41 7,-4 13,-5 19,-5 6,0 12,3 18,10 25,32 46,75 64,129 17,54 25,107 25,158 0,6 0,16 0,30 48,-90 72,-161 72,-213 0,-11 -2,-26 -7,-44 -5,-20 -8,-34 -8,-43 0,-8 3,-15 8,-21 6,-5 12,-8 20,-8 10,0 19,4 25,12 6,8 9,19 9,33 0,37 -8,83 -26,139 -16,55 -43,115 -79,178 -37,64 -70,111 -100,142 -30,31 -59,53 -87,67 -28,13 -55,20 -80,20 -19,0 -33,-4 -43,-11 -9,-7 -14,-15 -14,-25 0,-9 4,-16 11,-22 8,-7 18,-10 30,-10 10,0 23,2 40,6 19,4 31,6 38,6 17,0 36,-7 55,-22 27,-20 48,-44 64,-72 15,-28 23,-56 23,-85 0,-39 -6,-87 -17,-144 -12,-56 -28,-98 -50,-128 -10,-15 -22,-23 -34,-23 -14,0 -34,10 -60,29zm649 -95l28 -6 -32 109c-13,43 -25,93 -37,150 -6,31 -9,50 -9,59 0,9 3,14 10,14 5,0 12,-3 22,-9 18,-11 35,-24 52,-40l13 17c-32,30 -53,48 -63,54 -18,13 -36,22 -52,28 -11,4 -22,6 -32,6 -8,0 -13,-2 -17,-5 -4,-3 -5,-8 -5,-15 0,-4 1,-10 3,-18l17 -58c-25,29 -54,55 -88,76 -21,13 -41,20 -58,20 -17,0 -29,-6 -38,-18 -13,-16 -19,-36 -19,-62 0,-30 9,-64 25,-102 16,-37 38,-71 65,-102 27,-30 56,-52 86,-67 24,-11 54,-16 90,-16 9,0 19,0 28,2l11 -17zm-54 66c-15,-4 -29,-5 -39,-5 -26,0 -49,7 -68,21 -19,14 -37,40 -54,77 -16,37 -24,74 -24,111 0,19 3,33 9,42 7,9 16,13 26,13 20,0 41,-11 64,-32 23,-22 40,-53 50,-93l36 -134zm210 304l-64 0 30 -116c15,-57 28,-111 38,-163 3,-12 4,-20 4,-23 0,-7 -3,-11 -9,-11 -4,0 -11,3 -20,9 -9,6 -25,21 -48,44l-14 -15c28,-30 56,-52 83,-67 27,-14 48,-22 63,-22 5,0 9,1 12,4 3,2 5,5 5,9 0,4 -2,14 -6,30l-18 77c29,-46 62,-85 98,-117 18,-16 32,-24 44,-24 9,0 16,3 22,9 5,5 8,12 8,19 0,8 -2,15 -8,20 -6,6 -20,12 -42,20 -21,7 -39,16 -52,26 -13,10 -28,25 -44,46 -16,21 -27,38 -34,54 -6,15 -16,51 -28,107l-20 84zm369 -548c9,0 16,2 22,8 6,6 9,14 9,23 0,13 -5,24 -14,33 -8,10 -18,15 -29,15 -9,0 -16,-3 -22,-9 -6,-6 -8,-14 -8,-24 0,-13 4,-24 12,-33 8,-9 18,-13 30,-13zm-170 285l-19 -15c29,-31 55,-54 79,-67 23,-13 44,-20 60,-20 9,0 17,2 21,6 5,4 8,9 8,16 0,9 -10,44 -28,106 -31,102 -46,164 -46,185 0,4 1,7 3,10 2,3 4,4 7,4 9,0 32,-18 70,-53l17 16c-39,37 -68,61 -86,71 -18,11 -33,16 -45,16 -10,0 -18,-3 -24,-10 -5,-6 -8,-15 -8,-26 0,-36 21,-124 64,-263 2,-7 3,-13 3,-18 0,-6 -2,-9 -7,-9 -6,0 -13,3 -20,7 -7,5 -24,19 -49,44zm492 -107l28 -6 -32 109c-13,43 -25,93 -37,150 -6,31 -9,50 -9,59 0,9 4,14 11,14 4,0 12,-3 22,-9 18,-11 35,-24 51,-40l14 17c-33,30 -54,48 -63,54 -19,13 -36,22 -53,28 -11,4 -21,6 -32,6 -7,0 -13,-2 -16,-5 -4,-3 -6,-8 -6,-15 0,-4 1,-10 3,-18l18 -58c-25,29 -55,55 -89,76 -21,13 -40,20 -58,20 -16,0 -29,-6 -38,-18 -12,-16 -18,-36 -18,-62 0,-30 8,-64 24,-102 17,-37 38,-71 66,-102 27,-30 56,-52 86,-67 23,-11 53,-16 90,-16 9,0 18,0 28,2l10 -17zm-53 66c-16,-4 -29,-5 -40,-5 -26,0 -48,7 -67,21 -20,14 -38,40 -54,77 -17,37 -25,74 -25,111 0,19 3,33 10,42 7,9 15,13 26,13 20,0 41,-11 64,-32 22,-22 39,-53 50,-93l36 -134zm476 212l11 16c-26,30 -53,53 -81,70 -19,12 -35,18 -47,18 -10,0 -18,-4 -24,-12 -7,-8 -10,-21 -10,-38 0,-11 3,-28 7,-50 5,-22 19,-69 41,-142 9,-35 14,-56 14,-62 0,-10 -5,-15 -14,-15 -12,0 -27,6 -46,18 -25,17 -47,38 -67,64 -12,17 -22,41 -30,74l-34 150 -64 0c13,-50 24,-91 31,-123l64 -277c11,-51 27,-90 45,-117 19,-28 44,-50 74,-66 30,-17 60,-25 90,-25 12,0 22,3 29,9 8,6 11,14 11,23 0,8 -3,15 -10,21 -7,5 -17,8 -29,8 -7,0 -16,0 -27,-2 -25,-3 -42,-5 -51,-5 -13,0 -24,5 -32,16 -9,11 -18,36 -26,75l-49 213c35,-36 72,-66 112,-91 24,-15 43,-22 57,-22 11,0 20,3 26,10 7,7 10,16 10,29 0,9 -1,19 -4,29 -3,17 -12,48 -26,92 -19,62 -30,100 -33,115 -3,15 -5,28 -5,40 0,5 1,8 2,10 2,3 4,4 8,4 6,0 19,-8 38,-25 11,-9 24,-19 39,-32z"/>
  </g>
 </g>
</svg>
